# xmcd CD database file
#
# Track frame offsets:
#	150
#	18599
#	52401
#	73681
#	107605
#	135079
#	165444
#	196139
#	229834
#	268024
#	291021
#	332935
#
# Disc length: 4748 seconds
#
# Revision: 0
# Processed by: cddbd v1.5.2PL0 Copyright (c) Steve Scherf et al.
# Submitted via: CDex 1.79
#
DISCID=ac128a0c
DTITLE=Dirty Past - First Time I met with the blues
DYEAR=1999
DGENRE=Blues
TTITLE0=The Picture
TTITLE1=Million Miles away
TTITLE2=Candle
TTITLE3=First time I met with the blues
TTITLE4=Strange lovin Lady
TTITLE5=Turn the Page
TTITLE6=House Blues
TTITLE7=Love like a man
TTITLE8=BAd Penny
TTITLE9=Hoochie Coochie Man
TTITLE10=Freeze to me
TTITLE11=Juniors Wailing
EXTD=YEAR: 1999
EXTT0=
EXTT1=
EXTT2=
EXTT3=
EXTT4=
EXTT5=
EXTT6=
EXTT7=
EXTT8=
EXTT9=
EXTT10=
EXTT11=
PLAYORDER=
